<?xml version="1.0" standalone="no"?>
<!DOCTYPE svg PUBLIC "-//W3C//DTD SVG 20010904//EN"
 "http://www.w3.org/TR/2001/REC-SVG-20010904/DTD/svg10.dtd">
<svg version="1.0" xmlns="http://www.w3.org/2000/svg"
 width="512.000000pt" height="512.000000pt" viewBox="0 0 512.000000 512.000000"
 preserveAspectRatio="xMidYMid meet">

<g transform="translate(0.000000,512.000000) scale(0.100000,-0.100000)"
fill="#000000" stroke="none">
<path d="M1780 4401 l-755 -477 -3 -970 -2 -969 747 -471 748 -470 5 -389 5
-390 24 -3 c13 -2 28 2 32 10 5 7 9 184 9 393 l0 380 748 471 747 470 3 961 2
962 -32 24 c-74 55 -1485 940 -1503 943 -12 2 -305 -177 -775 -475z m740 -727
c0 -881 -3 -1104 -12 -1098 -7 4 -331 207 -720 452 l-708 445 0 202 0 202 713
451 c391 248 715 451 720 451 4 1 7 -497 7 -1105z m793 651 c595 -375 676
-429 660 -440 -10 -7 -259 -164 -553 -350 -294 -186 -601 -380 -682 -431
l-148 -94 0 886 0 886 23 -14 c12 -8 327 -207 700 -443z m707 -888 l0 -393
-709 -447 c-390 -246 -712 -447 -715 -447 -4 0 -5 176 -4 391 l3 392 710 448
c391 247 711 449 713 449 1 0 2 -177 2 -393z m-2206 -507 l706 -445 0 -394 0
-393 -22 14 c-13 8 -329 207 -703 443 -374 235 -688 434 -697 443 -17 14 -18
46 -18 399 0 320 2 384 14 381 7 -2 331 -203 720 -448z m2206 -437 l0 -468
-707 -445 c-389 -245 -710 -447 -715 -448 -4 -2 -7 207 -6 465 l3 468 710 447
c391 246 711 448 713 448 1 0 2 -210 2 -467z m-2209 -429 l709 -447 0 -244 c0
-192 -3 -244 -12 -240 -15 5 -1397 874 -1415 889 -18 14 -19 488 -2 488 7 0
331 -201 720 -446z"/>
</g>
</svg>
